<svg width="20" height="21" viewBox="0 0 20 21" fill="none" xmlns="http://www.w3.org/2000/svg">
<g clip-path="url(#clip0_8_440)">
<path d="M18.2143 8.71429H12.1429C11.9456 8.71429 11.7857 8.55437 11.7857 8.35714V2.28571C11.7857 1.29956 10.9862 0.5 10 0.5C9.01385 0.5 8.21429 1.29956 8.21429 2.28571V8.35714C8.21429 8.55437 8.05437 8.71429 7.85714 8.71429H1.78571C0.799561 8.71429 0 9.51385 0 10.5C0 11.4862 0.799561 12.2857 1.78571 12.2857H7.85714C8.05437 12.2857 8.21429 12.4456 8.21429 12.6429V18.7143C8.21429 19.7004 9.01385 20.5 10 20.5C10.9862 20.5 11.7857 19.7004 11.7857 18.7143V12.6429C11.7857 12.4456 11.9456 12.2857 12.1429 12.2857H18.2143C19.2004 12.2857 20 11.4862 20 10.5C20 9.51385 19.2004 8.71429 18.2143 8.71429Z" fill="white"/>
</g>
<defs>
<clipPath id="clip0_8_440">
<rect width="20" height="20" fill="white" transform="translate(0 0.5)"/>
</clipPath>
</defs>
</svg>
